<svg className="card-image" version="1.1" xmlns="http://www.w3.org/2000/svg" xmlns:xlink="http://www.w3.org/1999/xlink" x="0px" y="0px" viewBox="0 0 3000 3000" data-v-3a86d95f="" fill="currentColor">
<g className="" data-v-e26a0d66="" data-v-3a86d95f=""><g id="body-basic" className="body-basic" data-v-e26a0d66=""><g className="right-hand"><path className="st7" d="M1599,1997c0,0,17.2,79.4,53,67.5c16.3-5.4,7-42.5,7-42.5s23.7,22.3,42.9,5.1c17-15.1-5.6-44.3-5.6-44.3 s39.4,14.6,46.3-2c18.5-44.2-74.6-58.8-74.6-58.8C1636,1940.2,1611.4,1964,1599,1997z"></path><path className="st3 main" d="M1668,1922.2c-28.3,22.6-51.2,49.4-69,74.8c-22.3-22-44.4-50-64.2-80.5c-60.5-93.2-50.5-185.4-50.5-185.4 l96.6-28.6c0,0-7,70.9,36.4,154.6C1630.8,1882.9,1649.5,1903.9,1668,1922.2z"></path><path className="st5" d="M1484.3,1731.1c0,0-10,92.1,50.5,185.4c19.8,30.5,41.9,58.5,64.2,80.5l0,0c0,0,17.2,79.4,53,67.5 c16.3-5.4,7-42.5,7-42.5s23.7,22.3,42.9,5.1c17-15.1-5.6-44.3-5.6-44.3s39.4,14.6,46.3-2c18.5-44.2-74.6-58.8-74.6-58.8l0,0 c-18.4-18.3-37.2-39.3-50.6-65.2c-43.4-83.7-36.5-154.6-36.5-154.6"></path></g><g className="right-leg"><path className="st7" d="M1350.4,2447.8c10.7,36.4,24.4,71.5,37.6,71.5h230.8C1618.8,2519.3,1662.9,2390.1,1350.4,2447.8z"></path><path className="st3 main" d="M1329.1,2361.6c5.1,25.2,14.8,67.2,22.3,92.4c47.1-14,84.1-18,113-16.5c11.1-26.7,24.1-68.3,31.1-95.9 C1471.8,2352.2,1397.9,2357.6,1329.1,2361.6z"></path><path className="st5" d="M1329.1,2361.6c12.7,61.2,37.3,157.7,58.8,157.7h0.7h230.2c0,0,29.7-115.7-177.8-77.6l23.4-4.3 c11.5-26.2,21.8-61.3,29.4-89.5"></path><path className="st5" d="M1580.7,2516c0,0-3.1-48.1-73.7-44.2"></path></g><g className="body"><path className="st3 main" d="M1172.3,1501.2c82.2-7.6,163.4-8.1,243.6-0.8c83.8,7.6,152.9,72.6,169.7,158.6 c31.8,163.7,50.1,328.3,52.1,493.9c1.3,105-75.8,193.4-176.2,201.8c-109.4,9.1-217.6,9.1-324.6-0.1 c-96.6-8.4-172.9-90.7-175.7-191.7c-4.5-161.5,10.1-328.4,40.6-499.7C1017.4,1575.7,1087.2,1509.1,1172.3,1501.2z"></path><path className="st6 belly" d="M1477.3,1818.9c91.8,0,115.7,210.6,115.7,292.7c0,82.1-51.3,133.4-115.7,133.4 c-64.4,0-115.7-51.3-115.7-133.4C1361.6,2029.6,1385.5,1818.9,1477.3,1818.9z"></path><path className="st4" d="M1630.6,2171c-18.1,98.3-86.4,174.1-171.4,182.5c-109.4,10.8-217.6,10.8-324.7-0.1 c-84.5-8.7-153.5-84-171.2-182.2c34.5,62.4,91.2,105.4,156.3,112c116.9,12,235.1,12,354.6,0.2 C1539.7,2276.9,1596.2,2233.6,1630.6,2171z"></path><path className="st5" d="M1074,2337.8c-65-30.4-110.8-97.1-112.9-174.8c-4.5-161.5,10.1-328.4,40.6-499.7     c15.6-87.6,85.5-154.1,170.6-162c82.2-7.6,163.4-8.1,243.6-0.8c83.8,7.6,152.9,72.6,169.7,158.6     c31.8,163.7,50.1,328.3,52.1,493.9c1.1,87.9-52.8,164.2-129.3,191.6c-44.2,13.8-149.6,14.4-266,13.8"></path></g><g className="left-leg"><path className="st7" d="M1103.6,2447.8c10.7,36.4,24.4,71.5,37.6,71.5H1372C1372,2519.3,1416.1,2390.1,1103.6,2447.8z"></path><path className="st3 main" d="M1073.6,2338.2c5.1,25.2,23.6,90.6,31,115.8c47.1-14,84.1-18,113-16.5c11.1-26.7,17.9-51.5,24.8-79.1 C1130.3,2355.8,1103.8,2350.8,1073.6,2338.2z"></path><path className="st5" d="M1073.6,2338.2c12.7,61.2,46.1,181.1,67.5,181.1h0.7H1372c0,0,29.7-115.7-177.8-77.6l23.4-4.3 c12.4-28.2,16.9-46.7,24.6-75.9"></path><path className="st5" d="M1333.9,2516c0,0-3.1-48.1-73.7-44.2"></path></g><g className="left-hand"><path className="st7" d="M838.3,1652.2c0,0-76.6-27-60.4-60.9c7.4-15.5,43-1.7,43-1.7s-19.2-26.3,0.2-43.2 c17.1-15,43.3,11.1,43.3,11.1s-9.6-40.9,7.7-45.7c46.2-12.9,49,81.3,49,81.3C899.2,1622.5,872.6,1643.9,838.3,1652.2z"></path><path className="st3 main" d="M921.1,1593c-26,25.3-55.4,44.7-82.8,59.2c19.1,24.9,92.6,97.2,158.7,127.1 c85.6,38.7,159.6,21.4,159.6,21.4c32.7-33.5,17.2-83.5-28.3-94c0,0-71.2-1.9-148.9-55.4C955.5,1634.8,936.9,1613.6,921.1,1593z"></path><path className="st5" d="M1156.6,1800.7c0,0-76.2,26.9-187.2-35.5c-31.7-17.8-112-88.2-131.1-113l0,0c0,0-76.6-27-60.4-60.9 c7.4-15.5,43-1.7,43-1.7s-19.2-26.3,0.2-43.2c17.1-15,43.3,11.1,43.3,11.1s-9.6-40.9,7.7-45.7c46.2-12.9,49,81.3,49,81.3l0,0 c15.8,20.6,34.4,41.8,58.4,58.3c77.6,53.4,148.9,55.4,148.9,55.4"></path></g></g></g><g data-v-3a86d95f=""><g data-v-3145d216=""><g data-v-3145d216=""><path className="main" d="M907.5,1033.5l34.4-34.1l-18.2-7.4c0,0-148.6-57.5-177.5-94.7c-29.3-37.5-1.4-118.7,30.2-135.7 c36.6-19.7,163.1,79.3,217,162.8l9.5,14.4l34.3-34c-62.9-114.2-231.5-233-292.4-197.2c-61.6,36.2-86.8,172.5-48.9,221.3 C733.3,976.8,907.5,1033.5,907.5,1033.5z" data-v-3145d216=""></path><path className="outline1" d="M907.5,1033.5c0,0-174.2-56.7-211.6-104.8c-38-48.8-12.7-185.1,48.9-221.3c60.9-35.8,229.5,83,292.4,197.2" data-v-3145d216=""></path><path className="outline2 secondary" d="M923.7,992l18.2,7.4l61-60.6l-9.5-14.4c-53.9-83.5-180.4-182.4-217-162.8c-31.7,17-59.5,98.2-30.2,135.7 C775.1,934.4,923.7,992,923.7,992z" data-v-3145d216=""></path></g></g><g data-v-3145d216=""><g data-v-3145d216=""><path className="main" d="M1434.6,789.8h-48.4l7.7-18c0,0,64.8-145.5,59.2-192.3c-5.7-47.3-82.6-85.2-117.1-75 c-39.8,11.8-59.8,171.2-39.2,268.4l3.4,16.9h-48.3c-35.9-125.3,0-328.5,68.4-346c69.2-17.7,183.2,61.2,190.6,122.5 C1518.3,626.8,1434.6,789.8,1434.6,789.8z" data-v-3145d216=""></path><path className="outline1" d="M1434.6,789.8c0,0,83.6-163,76.3-223.5c-7.5-61.4-121.4-140.3-190.6-122.5c-68.4,17.5-104.3,220.7-68.4,346" data-v-3145d216=""></path><path className="outline2 secondary" d="M1393.9,771.7l-7.7,18h-86l-3.4-16.9c-20.6-97.2-0.6-256.6,39.2-268.4c34.5-10.2,111.4,27.7,117.1,75 C1458.7,626.2,1393.9,771.7,1393.9,771.7z" data-v-3145d216=""></path></g></g></g><g data-v-3a86d95f=""><path className="st3 main" d="M2327.3,1040.9c-8.8-34.9-18.6-69.3-29.2-103.4c-54.4-174.7-214.4-293.9-390.4-291.9 c-234.3,2.7-470.2,20.4-707.5,52.7c-241.5,32.8-394.8,277.2-326.3,521.9c22.3,79.7,47.3,157.1,75.2,231.9 c56.1,150.5,212.4,235.5,361.1,196.5c295.6-77.5,586.1-177.6,871.7-299.6C2298.2,1299.3,2359.8,1169,2327.3,1040.9z"></path><path className="st4" d="M2326,1182.5c-20.5,73.4-71.7,135.5-144,166.5c-285.6,122-576.1,222.1-871.7,299.6  c-148.7,39-305-46-361.1-196.5c-27.9-74.8-52.9-152.2-75.2-231.9c-34.1-121.8-13.2-243.5,46.1-339.1c-27.5,78.9-32,168-7,257.2 c22.3,79.7,47.3,157.1,75.2,231.9c56.1,150.5,212.4,235.5,361.1,196.5c295.6-77.5,586.1-177.6,871.7-299.6 C2264.2,1248.6,2299.9,1219,2326,1182.5z"></path><path className="st5" d="M2327.3,1040.9c-8.8-34.9-18.6-69.3-29.2-103.4c-54.4-174.7-214.4-293.9-390.4-291.9 c-234.3,2.7-470.2,20.4-707.5,52.7c-241.5,32.8-394.8,277.2-326.3,521.9c22.3,79.7,47.3,157.1,75.2,231.9 c56.1,150.5,212.4,235.5,361.1,196.5c295.6-77.5,586.1-177.6,871.7-299.6C2298.2,1299.3,2359.8,1169,2327.3,1040.9z"></path></g>
</svg>